<svg width="266" height="64" viewBox="0 0 266 64" fill="none" xmlns="http://www.w3.org/2000/svg">
<rect x="52" width="64" height="64" rx="4" fill="#615DFC" fill-opacity="0.08"/>
<path d="M72.0263 31.3314C72.0263 24.8822 77.3866 19.6541 83.9992 19.6541C87.3223 19.6541 90.3287 20.9753 92.4979 23.108L100.396 31.088C100.262 22.3653 92.9747 15.3333 83.9992 15.3333C77.8566 15.3333 72.5039 18.628 69.6942 23.503H64L72.0263 31.3314Z" fill="#615DFC"/>
<path d="M84.0004 47.3317C90.1434 47.3317 95.4954 44.0374 98.3054 39.1613H104L95.9729 31.3324C95.9729 37.782 90.6131 43.0113 84.0004 43.0113C80.6774 43.0113 77.6709 41.689 75.5017 39.557L67.6035 31.5767C67.7376 40.2994 75.0249 47.3317 84.0004 47.3317" fill="#615DFC"/>
<path d="M89.6208 34.7553C89.8873 34.3326 89.896 34.0819 88.8636 33.4499C88.5233 33.2419 87.8072 32.7007 87.0489 32.128C86.0745 31.3915 84.6013 30.2784 84.3402 30.2288C84.1884 30.2292 84.0448 30.2992 83.759 30.438C83.5105 30.5588 83.1706 30.7246 82.6521 30.9284C81.4205 31.4126 80.5715 31.3569 79.9938 30.7803C79.7801 30.5661 79.562 30.2992 79.5672 29.9392C79.5727 29.5388 79.8483 29.1022 80.4607 28.5226C80.8444 28.1596 81.5641 27.6319 82.0629 27.278C81.3996 27.318 80.2935 27.4219 79.0395 27.6892L77.3301 32.3092L77.4156 32.3926C77.6519 32.2319 78.1471 31.9488 78.7 31.9488C79.0947 31.9488 79.6452 32.0992 80.0802 32.7934C80.1184 32.7907 80.1642 32.7888 80.2147 32.7888C80.5475 32.7888 81.3389 32.8822 81.7439 33.7169C82.0814 33.7265 82.9644 33.8488 83.3228 34.823C83.6115 34.8688 84.2625 35.0484 84.5401 35.7469C84.8083 36.4219 84.6407 37.0661 84.0811 37.5438C84.2625 37.6896 84.6119 37.8634 84.9463 37.7484C85.2216 37.6522 85.3209 37.4715 85.3556 37.3369C85.4069 37.138 85.3509 36.9069 85.216 36.7611L85.1853 36.7299C85.1139 36.653 85.1182 36.5342 85.1947 36.4622C85.2708 36.3903 85.3919 36.3899 85.4688 36.4626L85.4771 36.4711C85.4794 36.4734 85.5067 36.5011 85.509 36.5034C85.5749 36.5676 85.9558 36.9219 86.3367 36.9219C86.4886 36.9219 86.623 36.8653 86.7476 36.7499C87.2023 36.3272 86.8738 35.9388 86.8348 35.8957C86.763 35.8169 86.7701 35.6961 86.8506 35.6257C86.9314 35.5549 87.0552 35.5611 87.1282 35.6388C87.1317 35.6426 87.4764 36.0046 87.8628 36.0046C87.9689 36.0046 88.0667 35.978 88.1621 35.9226C88.6444 35.6453 88.4027 35.0507 88.392 35.0253C88.3593 34.9476 88.3826 34.858 88.4492 34.8042C88.5158 34.7511 88.6097 34.7446 88.6826 34.7915C88.685 34.7934 88.9638 34.9684 89.2371 34.9684C89.407 34.9684 89.5289 34.9007 89.6208 34.7553Z" fill="#615DFC"/>
<path d="M84.3836 27.3817C83.9088 27.2455 83.1288 27.5886 82.0819 28.3863C80.9115 29.279 80.3795 29.8628 80.5424 30.0751C80.9691 30.6294 81.7684 30.509 83.2732 29.7228C83.7097 29.4944 84.0445 29.3532 84.3643 29.3532C84.7504 29.3532 85.0745 29.5659 85.459 29.8436C88.0364 31.7097 89.3117 32.6501 89.6599 32.9082L90.1342 32.6617L88.5881 28.6801C88.0241 28.5032 85.0008 27.5563 84.3836 27.3817Z" fill="#615DFC"/>
<path d="M76.2655 32.278L78.2889 26.9383L76.4292 26.4787L75.0742 31.8683L76.2655 32.278Z" fill="#615DFC"/>
<path d="M83.6677 35.8323C83.1775 35.3434 82.39 35.72 82.39 35.72C82.39 35.72 82.8762 35.3442 82.3253 34.7946C81.7737 34.2446 80.8848 34.8073 80.8848 34.8073C80.8848 34.8073 81.3955 34.3503 80.8288 33.7853C80.2622 33.2196 79.4005 33.8542 79.4005 33.8542C79.4897 33.6115 79.5591 33.2277 79.3445 33.0134C79.13 32.7996 78.7609 32.6196 78.0898 32.833C77.6832 32.963 77.0006 33.3923 77.4013 33.9434C77.8023 34.4942 78.6549 34.318 78.6549 34.318C78.6549 34.318 77.9462 34.5623 78.6257 35.1796C79.3047 35.7965 80.1214 35.283 80.1214 35.283C80.1214 35.283 79.5638 35.7077 80.0997 36.1453C80.636 36.5827 81.6136 36.153 81.6136 36.153C81.3367 36.4353 81.4373 37.3357 82.3667 37.2361C83.2958 37.1369 84.1578 36.3211 83.6677 35.8323Z" fill="#615DFC"/>
<path d="M89.345 27.7013L91.4129 33.0348L92.5407 32.5952L91.0619 27.2467L89.345 27.7013Z" fill="#615DFC"/>
<path d="M131.812 35.7075L136.259 31.5L131.812 27.2925L133.188 26L139 31.5L133.188 37L131.812 35.7075ZM126 35.7075L130.446 31.5L126 27.2925L127.376 26L133.188 31.5L127.376 37L126 35.7075Z" fill="#615DFC"/>
<rect x="150" width="64" height="64" rx="4" fill="#615DFC" fill-opacity="0.08"/>
<path d="M181.167 18.6666C183.027 18.6666 184.869 19.0331 186.588 19.745C188.307 20.4569 189.869 21.5005 191.184 22.8159C192.5 24.1314 193.543 25.6932 194.255 27.4119C194.967 29.1307 195.333 30.9729 195.333 32.8333C195.333 36.5905 193.841 40.1939 191.184 42.8506C188.527 45.5074 184.924 47 181.167 47C174.65 47 169.196 42.6366 167.51 36.7008L172.936 38.9391C173.122 39.8462 173.616 40.6613 174.333 41.2471C175.051 41.8328 175.948 42.1534 176.874 42.155C179.084 42.155 180.883 40.3558 180.883 38.1458V37.9616L185.7 34.5191H185.813C188.76 34.5191 191.154 32.125 191.154 29.1783C191.154 26.2316 188.76 23.8375 185.813 23.8375C182.867 23.8375 180.458 26.2316 180.458 29.1783V29.2491L177.101 34.1508L176.874 34.1366C176.038 34.1366 175.259 34.3916 174.622 34.8308L167 31.7C167.609 24.4041 173.701 18.6666 181.167 18.6666ZM175.897 40.1575C177.03 40.625 178.333 40.1008 178.801 38.9675C179.268 37.8341 178.73 36.545 177.625 36.0775L175.812 35.3266C176.506 35.0716 177.285 35.0575 178.022 35.3691C178.772 35.6666 179.353 36.2475 179.651 36.9983C179.962 37.735 179.962 38.5566 179.651 39.2933C179.042 40.8233 177.242 41.56 175.712 40.9225C175.004 40.625 174.466 40.0866 174.168 39.4491L175.897 40.1575ZM189.383 29.1783C189.383 31.1475 187.782 32.7483 185.813 32.7483C184.869 32.7445 183.965 32.3668 183.298 31.6977C182.632 31.0286 182.257 30.1227 182.258 29.1783C182.256 28.7108 182.346 28.2476 182.524 27.8153C182.702 27.3831 182.964 26.9903 183.295 26.6598C183.625 26.3292 184.018 26.0673 184.45 25.8893C184.883 25.7113 185.346 25.6206 185.813 25.6225C186.758 25.6225 187.664 25.9966 188.333 26.6631C189.002 27.3295 189.38 28.2339 189.383 29.1783ZM183.15 29.1783C183.15 30.6516 184.34 31.8558 185.827 31.8558C187.301 31.8558 188.491 30.6516 188.491 29.1783C188.491 27.705 187.301 26.5008 185.827 26.5008C184.34 26.5008 183.15 27.705 183.15 29.1783Z" fill="#615DFC"/>
</svg>
