<svg width="51" height="42" viewBox="0 0 51 42" fill="none" xmlns="http://www.w3.org/2000/svg"><path d="M38.5001 3.12524C43.6781 3.12524 47.8751 7.32231 47.8751 12.5002C47.8751 17.6782 43.6781 21.8752 38.5001 21.8752C33.3222 21.8752 29.1251 17.6782 29.1251 12.5002C29.1251 7.32231 33.3222 3.12524 38.5001 3.12524ZM40.4642 6.38306C40.3212 6.31274 40.1782 6.38306 40.1431 6.52544C40.1073 6.56118 40.1073 6.59692 40.1073 6.66782V7.16587L40.1132 7.22681C40.1438 7.34735 40.2179 7.45233 40.3212 7.52153C43.1068 8.51763 44.5353 11.6114 43.4993 14.3495C42.9638 15.8436 41.7855 16.9809 40.3212 17.5147C40.1782 17.5856 40.1073 17.6922 40.1073 17.8704V18.3684L40.1103 18.42C40.1159 18.4762 40.1394 18.5292 40.1773 18.5711C40.2153 18.613 40.2658 18.6416 40.3212 18.6526C40.357 18.6526 40.4284 18.6526 40.4642 18.6174C41.2678 18.3665 42.0139 17.959 42.6594 17.4185C43.305 16.878 43.8372 16.2152 44.2255 15.4681C44.6138 14.7211 44.8505 13.9046 44.922 13.0657C44.9935 12.2268 44.8983 11.3821 44.6419 10.5801C43.9997 8.55278 42.4282 7.0229 40.4642 6.38306ZM36.679 6.3479C36.6433 6.3479 36.5718 6.3479 36.5361 6.38306C35.7324 6.63403 34.9863 7.04149 34.3408 7.58199C33.6953 8.12248 33.163 8.78533 32.7747 9.53237C32.3864 10.2794 32.1497 11.0959 32.0783 11.9348C32.0068 12.7737 32.102 13.6184 32.3583 14.4204C33.0005 16.4125 34.5363 17.9418 36.5361 18.5817C36.679 18.6526 36.822 18.5817 36.8572 18.4393C36.8929 18.4042 36.8929 18.3678 36.8929 18.2969V17.7989L36.887 17.752C36.8624 17.653 36.7704 17.5399 36.679 17.479C33.8935 16.4829 32.465 13.3891 33.5009 10.651C34.0364 9.15688 35.2148 8.01958 36.679 7.48579C36.822 7.41489 36.8929 7.30825 36.8929 7.13013V6.63208L36.89 6.58052C36.8844 6.52425 36.8609 6.47127 36.8229 6.42938C36.7849 6.3875 36.7345 6.35893 36.679 6.3479ZM38.7503 8.19712H38.2142L38.1626 8.20181C38.0454 8.22524 37.9599 8.32603 37.9282 8.48188V9.29985L37.807 9.3186C36.8062 9.49673 36.1792 10.1875 36.1792 11.0424C36.1792 12.2155 36.8929 12.6778 38.3929 12.8559C39.3931 13.0334 39.7142 13.2473 39.7142 13.8163C39.7142 14.3846 39.2144 14.776 38.5359 14.776C37.6072 14.776 37.2861 14.3852 37.1788 13.8514C37.1437 13.7096 37.0359 13.6381 36.9286 13.6381H36.3216L36.2753 13.6422C36.2175 13.6516 36.1651 13.6815 36.1277 13.7266C36.0903 13.7716 36.0705 13.8286 36.072 13.8872V13.9223L36.0913 14.0278C36.2613 14.8622 36.8331 15.4592 37.9646 15.6297V16.4834L37.9693 16.535C37.9927 16.651 38.0941 16.7366 38.2505 16.7676H38.7861L38.8376 16.7629C38.9548 16.7395 39.0404 16.6387 39.072 16.4834V15.6292L39.1933 15.6057C40.197 15.3936 40.8573 14.6676 40.8573 13.7442C40.8573 12.4997 40.1073 12.0731 38.6073 11.895C37.5357 11.7526 37.3218 11.4684 37.3218 10.9704C37.3218 10.4723 37.6792 10.1524 38.3929 10.1524C39.0357 10.1524 39.3931 10.3657 39.5712 10.8995C39.5898 10.9511 39.6237 10.9958 39.6684 11.0275C39.7132 11.0593 39.7666 11.0765 39.8214 11.077H40.3927L40.439 11.0735C40.497 11.0643 40.5496 11.0343 40.5871 10.9891C40.6247 10.9439 40.6445 10.8867 40.6429 10.828V10.7928L40.6212 10.6915C40.5332 10.3272 40.3327 10 40.048 9.75642C39.7633 9.51278 39.4091 9.36512 39.0357 9.33442V8.48188L39.031 8.43032C39.0075 8.31372 38.9068 8.22817 38.7503 8.19712Z" fill="url(#paint0_linear_3771_77255)"/><path d="M25.4539 34.6815L19.25 30.9075L25.4501 39.917L31.6572 30.9075L25.4501 34.6815H25.4539ZM25.5461 19.0836L19.3447 29.6933L25.5461 33.4738L31.75 29.6972L25.5461 19.0836Z" fill="url(#paint1_linear_3771_77255)"/><path d="M11.69 12.6098L11.1313 14.8739C11.8213 15.0473 13.9475 15.7373 14.2625 14.4605C14.5906 13.1283 12.3791 12.7833 11.69 12.6098ZM12.4522 9.5189L11.9459 11.573C12.5197 11.7173 14.2897 12.308 14.5766 11.1464C14.8747 9.93421 13.0259 9.66421 12.4522 9.5189ZM12.5 3.12515C10.6458 3.12515 8.83324 3.67499 7.29153 4.70512C5.74982 5.73526 4.54821 7.19944 3.83863 8.91249C3.12906 10.6256 2.94341 12.5106 3.30514 14.3291C3.66688 16.1477 4.55976 17.8182 5.87088 19.1293C7.182 20.4404 8.85246 21.3333 10.671 21.695C12.4896 22.0567 14.3746 21.8711 16.0877 21.1615C17.8007 20.452 19.2649 19.2503 20.295 17.7086C21.3252 16.1669 21.875 14.3544 21.875 12.5002C21.875 11.269 21.6325 10.0499 21.1614 8.91249C20.6902 7.77507 19.9997 6.74158 19.1291 5.87103C18.2586 5.00048 17.2251 4.30992 16.0877 3.83878C14.9502 3.36764 13.7311 3.12515 12.5 3.12515ZM16.5856 11.1642C16.5659 11.5239 16.4279 11.8669 16.1931 12.1401C15.9583 12.4132 15.6398 12.6011 15.2872 12.6745C15.519 12.7689 15.7288 12.9103 15.9032 13.0897C16.0777 13.2691 16.2131 13.4828 16.3009 13.7172C16.3887 13.9515 16.427 14.2015 16.4134 14.4515C16.3998 14.7014 16.3346 14.9458 16.2219 15.1692C15.6725 16.7555 14.3684 16.8895 12.6341 16.5576L12.2131 18.2639L11.1959 18.007L11.6113 16.3242C11.3404 16.2567 11.0703 16.1858 10.8013 16.1114L10.3841 17.8026L9.36782 17.5467L9.78969 15.8367C9.55157 15.7758 9.31063 15.7101 9.06407 15.6483L7.74032 15.3145L8.24563 14.137C8.24563 14.137 8.99563 14.3386 8.98438 14.3236C9.03103 14.3387 9.0802 14.3443 9.12905 14.3402C9.1779 14.336 9.22543 14.3222 9.26889 14.2995C9.31234 14.2769 9.35085 14.2457 9.38216 14.208C9.41347 14.1703 9.43696 14.1267 9.45125 14.0798L10.5922 9.44953C10.6068 9.30779 10.5655 9.16594 10.4771 9.05421C10.3886 8.94249 10.2601 8.86971 10.1188 8.8514C10.1338 8.84109 9.37907 8.66578 9.37907 8.66578L9.65094 7.56703L11.0525 7.9214L11.0516 7.92703C11.2625 7.97953 11.48 8.03015 11.7013 8.08078L12.1175 6.3914L13.1347 6.64828L12.7259 8.3039C12.9988 8.36765 13.2734 8.43046 13.5416 8.49796L13.9466 6.85265L14.9638 7.10953L14.5466 8.7989C15.8309 9.24609 16.7703 9.91734 16.5856 11.1642Z" fill="url(#paint2_linear_3771_77255)"/><defs><linearGradient id="paint0_linear_3771_77255" x1="38.5001" y1="3.12524" x2="38.5001" y2="21.8752" gradientUnits="userSpaceOnUse"><stop stop-color="#F9F9F9"/><stop offset="1" stop-color="#8E8EDA"/></linearGradient><linearGradient id="paint1_linear_3771_77255" x1="25.5" y1="19.0836" x2="25.5" y2="39.917" gradientUnits="userSpaceOnUse"><stop stop-color="#F9F9F9"/><stop offset="1" stop-color="#8E8EDA"/></linearGradient><linearGradient id="paint2_linear_3771_77255" x1="12.5" y1="3.12515" x2="12.5" y2="21.8752" gradientUnits="userSpaceOnUse"><stop stop-color="#F9F9F9"/><stop offset="1" stop-color="#8E8EDA"/></linearGradient></defs></svg>