<svg width="75" height="32" viewBox="0 0 75 32" fill="none" xmlns="http://www.w3.org/2000/svg"><rect x="28.5" width="46" height="28" rx="3" fill="url(#paint0_linear_13239_44000)"/><path d="M62.2822 4.84566C62.9127 5.32762 63.4223 5.94293 63.7725 6.64504C64.1227 7.34714 64.3043 8.11763 64.3036 8.8982C64.3042 9.67882 64.1225 10.4494 63.7722 11.1515C63.4218 11.8536 62.9121 12.4688 62.2815 12.9507C61.651 12.4688 61.1414 11.8535 60.7912 11.1514C60.441 10.4492 60.2594 9.67876 60.2601 8.8982C60.2594 8.11763 60.441 7.34714 60.7912 6.64504C61.1414 5.94293 61.651 5.32762 62.2815 4.84566H62.2822ZM61.6048 4.40431C60.9376 4.95916 60.4021 5.64848 60.0352 6.42463C59.6683 7.20078 59.4789 8.04526 59.4799 8.89971C59.4789 9.75385 59.6684 10.598 60.0351 11.3739C60.4019 12.1498 60.9372 12.8389 61.604 13.3936C60.7984 13.834 59.8885 14.0615 58.9647 14.0533C58.0409 14.045 57.1354 13.8015 56.3381 13.3468C55.5409 12.8922 54.8798 12.2422 54.4204 11.4616C53.9611 10.6809 53.7195 9.79676 53.7197 8.89701C53.72 7.99726 53.962 7.11323 54.4218 6.33281C54.8815 5.55239 55.543 4.90275 56.3405 4.44847C57.1379 3.9942 58.0436 3.7511 58.9674 3.74336C59.8912 3.73561 60.801 3.96348 61.6064 4.40431H61.6048ZM62.9612 13.3936C63.6281 12.8388 64.1634 12.1497 64.5301 11.3739C64.8968 10.598 65.0863 9.75385 65.0854 8.89971C65.0863 8.04521 64.8967 7.20069 64.5297 6.42453C64.1627 5.64837 63.627 4.95909 62.9597 4.40431C63.765 3.96348 64.6749 3.73561 65.5987 3.74336C66.5225 3.7511 67.4281 3.9942 68.2256 4.44847C69.0231 4.90275 69.6845 5.55239 70.1443 6.33281C70.6041 7.11323 70.8461 7.99726 70.8463 8.89701C70.8466 9.79676 70.605 10.6809 70.1456 11.4616C69.6863 12.2422 69.0251 12.8922 68.2279 13.3468C67.4307 13.8015 66.5252 14.045 65.6014 14.0533C64.6775 14.0615 63.7668 13.834 62.9612 13.3936Z" fill="#F79E1B"/><path d="M61.6048 4.40431C60.9376 4.95916 60.4021 5.64848 60.0352 6.42463C59.6683 7.20078 59.4789 8.04526 59.4799 8.89971C59.4789 9.75385 59.6684 10.598 60.0351 11.3739C60.4019 12.1498 60.9372 12.8389 61.604 13.3936C60.7985 13.834 59.8885 14.0615 58.9647 14.0533C58.0409 14.045 57.1354 13.8015 56.3381 13.3468C55.5409 12.8922 54.8798 12.2422 54.4204 11.4616C53.9611 10.6809 53.7195 9.79676 53.7197 8.89701C53.72 7.99726 53.962 7.11323 54.4218 6.33281C54.8815 5.55239 55.543 4.90275 56.3405 4.44847C57.1379 3.9942 58.0436 3.7511 58.9674 3.74336C59.8912 3.73561 60.801 3.96348 61.6064 4.40431H61.6048Z" fill="#EB001B"/><path d="M62.2824 4.84566C62.9128 5.32762 63.4224 5.94293 63.7726 6.64504C64.1229 7.34714 64.3045 8.11763 64.3038 8.8982C64.3044 9.67882 64.1226 10.4494 63.7723 11.1515C63.422 11.8536 62.9122 12.4688 62.2816 12.9507C61.6512 12.4688 61.1416 11.8535 60.7914 11.1514C60.4412 10.4492 60.2595 9.67876 60.2602 8.8982C60.2595 8.11763 60.4412 7.34714 60.7914 6.64504C61.1416 5.94293 61.6512 5.32762 62.2816 4.84566H62.2824Z" fill="#FF5F00"/><rect x="0.5" y="4" width="46" height="28" rx="3" fill="url(#paint1_linear_13239_44000)"/><path d="M40.8693 15.9134L40.6639 15.0436H38.3594L37.9928 15.9072L36.1457 15.9103C37.3328 13.5034 38.2146 11.7211 38.7893 10.5621C38.9397 10.259 39.2064 10.1044 39.5997 10.1067C39.9003 10.109 40.3908 10.109 41.0718 10.1075L42.5 15.9111L40.8693 15.9134ZM38.8783 13.8521H40.3633L39.8087 11.6716L38.8783 13.8521ZM26.9717 10.1059L28.8288 10.1075L25.9578 15.9142L24.0778 15.9126C23.605 14.3789 23.1381 12.8438 22.6771 11.3075C22.5854 11.0013 22.4039 10.7871 22.0547 10.6858C21.5389 10.54 21.0206 10.4006 20.5 10.2675L20.5 10.1075H23.4673C23.9806 10.1075 24.2803 10.317 24.3766 10.7469C24.4738 11.1776 24.7176 12.2747 25.1099 14.0361L26.9717 10.1059ZM31.3808 10.1075L29.9132 15.9134L28.145 15.9111L29.6117 10.1059L31.3808 10.1075ZM34.965 10C35.4939 10 36.1603 10.1392 36.5435 10.2675L36.2337 11.4706C35.8872 11.3531 35.317 11.1946 34.8376 11.2C34.1409 11.2101 33.7101 11.4567 33.7101 11.6933C33.7101 12.0784 34.4581 12.2724 35.2281 12.693C36.1062 13.1724 36.2227 13.6031 36.2117 14.0716C36.1997 15.042 35.2281 16 33.1784 16C32.2434 15.9884 31.9061 15.9227 31.1434 15.6938L31.4661 14.4381C32.2425 14.7119 32.5716 14.7992 33.2352 14.7992C33.843 14.7992 34.3646 14.592 34.3692 14.2309C34.3728 13.9742 34.1858 13.8466 33.5038 13.5296C32.8218 13.2119 31.8648 12.7727 31.8777 11.8889C31.8932 10.7585 33.1628 10 34.965 10Z" fill="#1C1D26"/><defs><linearGradient id="paint0_linear_13239_44000" x1="28.5" y1="0" x2="53.3717" y2="40.8607" gradientUnits="userSpaceOnUse"><stop stop-color="#2A2795"/><stop offset="1" stop-color="#6B67F9"/></linearGradient><linearGradient id="paint1_linear_13239_44000" x1="23.5" y1="4" x2="23.5" y2="32" gradientUnits="userSpaceOnUse"><stop stop-color="#F9F9F9"/><stop offset="1" stop-color="#8E8EDA"/></linearGradient></defs></svg>